<svg aria-roledescription="er" viewBox="0 0 190.1953125 298" style="max-width: 190.195px; background-color: white;" xmlns:xlink="http://www.w3.org/1999/xlink" xmlns="http://www.w3.org/2000/svg" width="100%" id="mermaid-0"><style>#mermaid-0{font-family:"trebuchet ms",verdana,arial,sans-serif;font-size:16px;fill:#000000;}#mermaid-0 .error-icon{fill:#552222;}#mermaid-0 .error-text{fill:#552222;stroke:#552222;}#mermaid-0 .edge-thickness-normal{stroke-width:2px;}#mermaid-0 .edge-thickness-thick{stroke-width:3.5px;}#mermaid-0 .edge-pattern-solid{stroke-dasharray:0;}#mermaid-0 .edge-pattern-dashed{stroke-dasharray:3;}#mermaid-0 .edge-pattern-dotted{stroke-dasharray:2;}#mermaid-0 .marker{fill:#000000;stroke:#000000;}#mermaid-0 .marker.cross{stroke:#000000;}#mermaid-0 svg{font-family:"trebuchet ms",verdana,arial,sans-serif;font-size:16px;}#mermaid-0 .entityBox{fill:#cde498;stroke:#13540c;}#mermaid-0 .attributeBoxOdd{fill:#ffffff;stroke:#13540c;}#mermaid-0 .attributeBoxEven{fill:#f2f2f2;stroke:#13540c;}#mermaid-0 .relationshipLabelBox{fill:hsl(78.1578947368, 58.4615384615%, 84.5098039216%);opacity:0.7;background-color:hsl(78.1578947368, 58.4615384615%, 84.5098039216%);}#mermaid-0 .relationshipLabelBox rect{opacity:0.5;}#mermaid-0 .relationshipLine{stroke:#000000;}#mermaid-0 .entityTitleText{text-anchor:middle;font-size:18px;fill:#000000;}#mermaid-0 :root{--mermaid-font-family:"trebuchet ms",verdana,arial,sans-serif;}</style><g/><defs><marker orient="auto" markerHeight="18" markerWidth="18" refY="9" refX="0" id="ONLY_ONE_START"><path d="M9,0 L9,18 M15,0 L15,18" fill="none" stroke="gray"/></marker></defs><defs><marker orient="auto" markerHeight="18" markerWidth="18" refY="9" refX="18" id="ONLY_ONE_END"><path d="M3,0 L3,18 M9,0 L9,18" fill="none" stroke="gray"/></marker></defs><defs><marker orient="auto" markerHeight="18" markerWidth="30" refY="9" refX="0" id="ZERO_OR_ONE_START"><circle r="6" cy="9" cx="21" fill="white" stroke="gray"/><path d="M9,0 L9,18" fill="none" stroke="gray"/></marker></defs><defs><marker orient="auto" markerHeight="18" markerWidth="30" refY="9" refX="30" id="ZERO_OR_ONE_END"><circle r="6" cy="9" cx="9" fill="white" stroke="gray"/><path d="M21,0 L21,18" fill="none" stroke="gray"/></marker></defs><defs><marker orient="auto" markerHeight="36" markerWidth="45" refY="18" refX="18" id="ONE_OR_MORE_START"><path d="M0,18 Q 18,0 36,18 Q 18,36 0,18 M42,9 L42,27" fill="none" stroke="gray"/></marker></defs><defs><marker orient="auto" markerHeight="36" markerWidth="45" refY="18" refX="27" id="ONE_OR_MORE_END"><path d="M3,9 L3,27 M9,18 Q27,0 45,18 Q27,36 9,18" fill="none" stroke="gray"/></marker></defs><defs><marker orient="auto" markerHeight="36" markerWidth="57" refY="18" refX="18" id="ZERO_OR_MORE_START"><circle r="6" cy="18" cx="48" fill="white" stroke="gray"/><path d="M0,18 Q18,0 36,18 Q18,36 0,18" fill="none" stroke="gray"/></marker></defs><defs><marker orient="auto" markerHeight="36" markerWidth="57" refY="18" refX="39" id="ZERO_OR_MORE_END"><circle r="6" cy="18" cx="9" fill="white" stroke="gray"/><path d="M21,18 Q39,0 57,18 Q39,36 21,18" fill="none" stroke="gray"/></marker></defs><path style="stroke: gray; fill: none;" marker-start="url(#ZERO_OR_MORE_START)" marker-end="url(#ONLY_ONE_END)" d="M95.09765625,110L95.09765625,118.33333333333333C95.09765625,126.66666666666667,95.09765625,143.33333333333334,95.09765625,160C95.09765625,176.66666666666666,95.09765625,193.33333333333334,95.09765625,201.66666666666666L95.09765625,210" class="er relationshipLine"/><g transform="translate(45.09765625,210 )" id="entity-User-003d046b-8702-4b8f-8668-3472bbcece7a"><rect height="68" width="100" y="0" x="0" class="er entityBox"/><text style="dominant-baseline: middle; text-anchor: middle; font-size: 12px;" transform="translate(50,12)" y="0" x="0" id="text-entity-User-003d046b-8702-4b8f-8668-3472bbcece7a" class="er entityLabel">User</text><rect height="22" width="38.838541666666664" y="24" x="0" class="er attributeBoxOdd"/><text style="dominant-baseline: middle; font-size: 10.2px;" transform="translate(5,35)" y="0" x="0" id="text-entity-User-003d046b-8702-4b8f-8668-3472bbcece7a-attr-1-type" class="er entityLabel">Int</text><rect height="22" width="37.283854166666664" y="24" x="38.838541666666664" class="er attributeBoxOdd"/><text style="dominant-baseline: middle; font-size: 10.2px;" transform="translate(43.838541666666664,35)" y="0" x="0" id="text-entity-User-003d046b-8702-4b8f-8668-3472bbcece7a-attr-1-name" class="er entityLabel">id</text><rect height="22" width="23.877604166666668" y="24" x="76.12239583333333" class="er attributeBoxOdd"/><text style="dominant-baseline: middle; font-size: 10.2px;" transform="translate(81.12239583333333,35)" y="0" x="0" id="text-entity-User-003d046b-8702-4b8f-8668-3472bbcece7a-attr-1-key" class="er entityLabel">PK</text><rect height="22" width="38.838541666666664" y="46" x="0" class="er attributeBoxEven"/><text style="dominant-baseline: middle; font-size: 10.2px;" transform="translate(5,57)" y="0" x="0" id="text-entity-User-003d046b-8702-4b8f-8668-3472bbcece7a-attr-2-type" class="er entityLabel">String</text><rect height="22" width="37.283854166666664" y="46" x="38.838541666666664" class="er attributeBoxEven"/><text style="dominant-baseline: middle; font-size: 10.2px;" transform="translate(43.838541666666664,57)" y="0" x="0" id="text-entity-User-003d046b-8702-4b8f-8668-3472bbcece7a-attr-2-name" class="er entityLabel">name</text><rect height="22" width="23.877604166666668" y="46" x="76.12239583333333" class="er attributeBoxEven"/><text style="dominant-baseline: middle; font-size: 10.2px;" transform="translate(81.12239583333333,57)" y="0" x="0" id="text-entity-User-003d046b-8702-4b8f-8668-3472bbcece7a-attr-2-key" class="er entityLabel"/></g><g transform="translate(20,20 )" id="entity-Post-e19d253b-1ec1-4b33-b072-e02740aeabc7"><rect height="90" width="150.1953125" y="0" x="0" class="er entityBox"/><text style="dominant-baseline: middle; text-anchor: middle; font-size: 12px;" transform="translate(75.09765625,12)" y="0" x="0" id="text-entity-Post-e19d253b-1ec1-4b33-b072-e02740aeabc7" class="er entityLabel">Post</text><rect height="22" width="36.5234375" y="24" x="0" class="er attributeBoxOdd"/><text style="dominant-baseline: middle; font-size: 10.2px;" transform="translate(5,35)" y="0" x="0" id="text-entity-Post-e19d253b-1ec1-4b33-b072-e02740aeabc7-attr-1-type" class="er entityLabel">Int</text><rect height="22" width="45.328125" y="24" x="36.5234375" class="er attributeBoxOdd"/><text style="dominant-baseline: middle; font-size: 10.2px;" transform="translate(41.5234375,35)" y="0" x="0" id="text-entity-Post-e19d253b-1ec1-4b33-b072-e02740aeabc7-attr-1-name" class="er entityLabel">id</text><rect height="22" width="21.5625" y="24" x="81.8515625" class="er attributeBoxOdd"/><text style="dominant-baseline: middle; font-size: 10.2px;" transform="translate(86.8515625,35)" y="0" x="0" id="text-entity-Post-e19d253b-1ec1-4b33-b072-e02740aeabc7-attr-1-key" class="er entityLabel">PK</text><rect height="22" width="46.78125" y="24" x="103.4140625" class="er attributeBoxOdd"/><text style="dominant-baseline: middle; font-size: 10.2px;" transform="translate(108.4140625,35)" y="0" x="0" id="text-entity-Post-e19d253b-1ec1-4b33-b072-e02740aeabc7-attr-1-comment" class="er entityLabel"/><rect height="22" width="36.5234375" y="46" x="0" class="er attributeBoxEven"/><text style="dominant-baseline: middle; font-size: 10.2px;" transform="translate(5,57)" y="0" x="0" id="text-entity-Post-e19d253b-1ec1-4b33-b072-e02740aeabc7-attr-2-type" class="er entityLabel">String</text><rect height="22" width="45.328125" y="46" x="36.5234375" class="er attributeBoxEven"/><text style="dominant-baseline: middle; font-size: 10.2px;" transform="translate(41.5234375,57)" y="0" x="0" id="text-entity-Post-e19d253b-1ec1-4b33-b072-e02740aeabc7-attr-2-name" class="er entityLabel">title</text><rect height="22" width="21.5625" y="46" x="81.8515625" class="er attributeBoxEven"/><text style="dominant-baseline: middle; font-size: 10.2px;" transform="translate(86.8515625,57)" y="0" x="0" id="text-entity-Post-e19d253b-1ec1-4b33-b072-e02740aeabc7-attr-2-key" class="er entityLabel"/><rect height="22" width="46.78125" y="46" x="103.4140625" class="er attributeBoxEven"/><text style="dominant-baseline: middle; font-size: 10.2px;" transform="translate(108.4140625,57)" y="0" x="0" id="text-entity-Post-e19d253b-1ec1-4b33-b072-e02740aeabc7-attr-2-comment" class="er entityLabel"/><rect height="22" width="36.5234375" y="68" x="0" class="er attributeBoxOdd"/><text style="dominant-baseline: middle; font-size: 10.2px;" transform="translate(5,79)" y="0" x="0" id="text-entity-Post-e19d253b-1ec1-4b33-b072-e02740aeabc7-attr-3-type" class="er entityLabel">String</text><rect height="22" width="45.328125" y="68" x="36.5234375" class="er attributeBoxOdd"/><text style="dominant-baseline: middle; font-size: 10.2px;" transform="translate(41.5234375,79)" y="0" x="0" id="text-entity-Post-e19d253b-1ec1-4b33-b072-e02740aeabc7-attr-3-name" class="er entityLabel">content</text><rect height="22" width="21.5625" y="68" x="81.8515625" class="er attributeBoxOdd"/><text style="dominant-baseline: middle; font-size: 10.2px;" transform="translate(86.8515625,79)" y="0" x="0" id="text-entity-Post-e19d253b-1ec1-4b33-b072-e02740aeabc7-attr-3-key" class="er entityLabel"/><rect height="22" width="46.78125" y="68" x="103.4140625" class="er attributeBoxOdd"/><text style="dominant-baseline: middle; font-size: 10.2px;" transform="translate(108.4140625,79)" y="0" x="0" id="text-entity-Post-e19d253b-1ec1-4b33-b072-e02740aeabc7-attr-3-comment" class="er entityLabel">nullable</text></g><rect height="14" width="35.28125" y="153" x="77.45703125" class="er relationshipLabelBox"/><text style="text-anchor: middle; dominant-baseline: middle; font-size: 12px;" y="160" x="95.09765625" id="rel1" class="er relationshipLabel">author</text></svg>